<svg id="Objects" xmlns="http://www.w3.org/2000/svg" viewBox="0 0 97.11 101.56"><defs><style>.cls-1{fill:#aa7764;}.cls-1,.cls-2,.cls-3,.cls-5,.cls-6{fill-rule:evenodd;}.cls-2{fill:#e0ba9b;}.cls-3,.cls-4{fill:#fcdabe;}.cls-5{fill:#425156;}.cls-6{fill:#bf9470;}</style></defs><title>Avatar_classmate2</title><path class="cls-1" d="M542.24,422.87c-64.69,0-49.1,85.75,0,85.75S606.93,422.87,542.24,422.87Z" transform="translate(-493.7 -421.72)"/><path class="cls-2" d="M553.7,515.9h0c0,9.85-22.93,9.85-22.93,0h0C530.78,506,553.7,506,553.7,515.9Z" transform="translate(-493.7 -421.72)"/><path class="cls-3" d="M542.24,425.6c-64.6,0-49,93.76,0,93.76S606.84,425.6,542.24,425.6Z" transform="translate(-493.7 -421.72)"/><ellipse class="cls-4" cx="500.31" cy="478.42" rx="6.1" ry="11.9" transform="translate(-596.52 -283.06) rotate(-14.33)"/><ellipse class="cls-4" cx="584.21" cy="478.42" rx="11.9" ry="6.1" transform="translate(-517.59 504.37) rotate(-75.67)"/><path class="cls-5" d="M555.64,481.53c1.71,0,3.11-2.56,3.11-5.7s-1.4-5.7-3.11-5.7-3.11,2.56-3.11,5.7S553.93,481.53,555.64,481.53Z" transform="translate(-493.7 -421.72)"/><path class="cls-5" d="M528.84,481.53c1.71,0,3.11-2.56,3.11-5.7s-1.4-5.7-3.11-5.7-3.11,2.56-3.11,5.7S527.13,481.53,528.84,481.53Z" transform="translate(-493.7 -421.72)"/><path class="cls-2" d="M548.53,488c-2.42,6.16-10.17,6-12.59,0A9,9,0,0,0,548.53,488Z" transform="translate(-493.7 -421.72)"/><path class="cls-1" d="M506.54,479.14c0.71,6.86-1,4.92-3.42-.46s-4.26-10.75-3.83-16.06c4.15-51.29,80.41-51.92,85.87,0,0.56,5.3-1.37,10.68-3.83,16.06s-4.13,7.32-3.42.46c0.86-8.33-.42-20.31-4.83-27.37-7.8-12.48-18-5.24-31.76-5.24s-20.26-5.63-29.26,5.89C506.59,459.41,505.62,470.25,506.54,479.14Z" transform="translate(-493.7 -421.72)"/><path class="cls-1" d="M499.37,461.72c-5.13-54,90.75-52.68,85.74,0C574,429.53,510.48,429.53,499.37,461.72Z" transform="translate(-493.7 -421.72)"/><path class="cls-6" d="M558.42,497.1c-5.58,9.82-25.58,10.09-32.37,0C535.61,500.87,549.37,500.61,558.42,497.1Z" transform="translate(-493.7 -421.72)"/><path class="cls-1" d="M561.95,466.9c16.22-25.19,5.3-32.1-12.88-39.55C572.4,424.24,600.16,447.14,561.95,466.9Z" transform="translate(-493.7 -421.72)"/><path class="cls-1" d="M542.14,465.31c24.87-19.32,17.3-27.66,3.62-37.91C571,429.23,589.68,455.2,542.14,465.31Z" transform="translate(-493.7 -421.72)"/><path class="cls-1" d="M524.39,459.67c21.63-12.83,25.37-22,13.64-36.37C564.59,431.35,574,458.75,524.39,459.67Z" transform="translate(-493.7 -421.72)"/><path class="cls-1" d="M505.72,457.6c11.46-12.83,17.59-18.39,18.34-31.6C552,433.08,571.23,446.33,505.72,457.6Z" transform="translate(-493.7 -421.72)"/></svg>