<svg id="Objects" xmlns="http://www.w3.org/2000/svg" viewBox="0 0 103.71 287.79"><defs><style>.cls-1,.cls-7{fill:#dea97e;}.cls-1,.cls-10,.cls-12,.cls-2,.cls-3,.cls-5,.cls-6,.cls-8,.cls-9{fill-rule:evenodd;}.cls-2{fill:#869ab5;}.cls-3{fill:#a1c947;}.cls-4,.cls-8{fill:#425156;}.cls-5{fill:#ba885f;}.cls-10,.cls-11,.cls-6{fill:#6b503f;}.cls-9{fill:#a17049;}.cls-10{stroke:#6b503f;stroke-miterlimit:22.93;stroke-width:0.22px;}.cls-12,.cls-13{fill:#a6b8cf;}</style></defs><title>Avatar_greenpants</title><path class="cls-1" d="M270.36,535.87l11.31,39.19a9.47,9.47,0,0,0,11.7,6.46h0a9.47,9.47,0,0,0,6.46-11.7l-11.31-39.19C285.22,519.25,267.24,525.08,270.36,535.87Z" transform="translate(-201.11 -418.96)"/><path class="cls-2" d="M284.47,684.37c4.51,6.72,10.53,10.59,12,15.44,2.41,7.78-5.6,7.46-10.69,6.3-5.46-1.25-8-4.49-11-5.34-7.17-2.07-7.36-6.31-4.46-16.39S280.83,678.08,284.47,684.37Z" transform="translate(-201.11 -418.96)"/><path class="cls-2" d="M238.63,684.37c-4.51,6.72-10.53,10.59-12,15.44-2.5,8.06,6.3,7.5,11.37,6.13s7.48-4.36,10.31-5.18c7.17-2.07,7.36-6.31,4.46-16.39S242.27,678.08,238.63,684.37Z" transform="translate(-201.11 -418.96)"/><path class="cls-1" d="M224.87,595.29h0a2.3,2.3,0,0,1,3.25,0l3.94,3.94a2.3,2.3,0,0,1,0,3.25h0a2.3,2.3,0,0,1-3.25,0l-3.94-3.94A2.3,2.3,0,0,1,224.87,595.29Z" transform="translate(-201.11 -418.96)"/><path class="cls-3" d="M280.33,597.54H229.56L233.74,690h21.09l-4.19-67.13c-0.36-5.74,7.8-5.71,8.59,0L268.61,690h21.09Z" transform="translate(-201.11 -418.96)"/><path class="cls-1" d="M239,538.15l-20.13,35.47a9.47,9.47,0,0,1-12.88,3.55h0a9.47,9.47,0,0,1-3.55-12.88l20.13-35.47C228.37,518.52,244.5,528.37,239,538.15Z" transform="translate(-201.11 -418.96)"/><path class="cls-2" d="M239,538.15l-13.18,23.23-15.53-10.91,12.28-21.65C228.37,518.52,244.5,528.37,239,538.15Z" transform="translate(-201.11 -418.96)"/><path class="cls-2" d="M270.36,535.87l6.88,23.83,18.24-4.95-7-24.12C285.22,519.25,267.24,525.08,270.36,535.87Z" transform="translate(-201.11 -418.96)"/><rect class="cls-4" x="28.45" y="105.49" width="50.77" height="80.04"/><path class="cls-2" d="M240.83,524.44h28.22v1.77a14.15,14.15,0,0,1-14.11,14.11h0a14.15,14.15,0,0,1-14.11-14.11v-1.77Z" transform="translate(-201.11 -418.96)"/><path class="cls-1" d="M254.94,486.71h0a11.5,11.5,0,0,0-11.46,11.46v26.27a11.5,11.5,0,0,0,11.46,11.46h0a11.5,11.5,0,0,0,11.46-11.46V498.18A11.5,11.5,0,0,0,254.94,486.71Z" transform="translate(-201.11 -418.96)"/><path class="cls-5" d="M243.48,515.9h0c0,9.85,22.93,9.85,22.93,0h0C266.41,506,243.48,506,243.48,515.9Z" transform="translate(-201.11 -418.96)"/><path class="cls-6" d="M226.87,508.9a13.67,13.67,0,1,0-13.67-13.67A13.7,13.7,0,0,0,226.87,508.9Z" transform="translate(-201.11 -418.96)"/><path class="cls-6" d="M280.38,509.35a13.67,13.67,0,1,0-13.67-13.67A13.7,13.7,0,0,0,280.38,509.35Z" transform="translate(-201.11 -418.96)"/><path class="cls-6" d="M216.74,498.54a13.67,13.67,0,1,0-13.67-13.67A13.7,13.7,0,0,0,216.74,498.54Z" transform="translate(-201.11 -418.96)"/><path class="cls-6" d="M289.17,497.58a13.67,13.67,0,1,0-13.67-13.67A13.7,13.7,0,0,0,289.17,497.58Z" transform="translate(-201.11 -418.96)"/><path class="cls-6" d="M214.78,485.48a13.67,13.67,0,1,0-13.67-13.67A13.7,13.7,0,0,0,214.78,485.48Z" transform="translate(-201.11 -418.96)"/><path class="cls-6" d="M291.15,483.36a13.67,13.67,0,1,0-13.67-13.67A13.7,13.7,0,0,0,291.15,483.36Z" transform="translate(-201.11 -418.96)"/><path class="cls-1" d="M254.94,425.6c64.6,0,49,93.76,0,93.76S190.34,425.6,254.94,425.6Z" transform="translate(-201.11 -418.96)"/><path class="cls-1" d="M228.86,598.05l-0.88-3-9.58.1-8.19,5,0.88,3C215,616.25,233.37,613.17,228.86,598.05Z" transform="translate(-201.11 -418.96)"/><path class="cls-1" d="M228,595.09l-8.06-28.4a9.43,9.43,0,0,0-11.75-6.35h0a9.47,9.47,0,0,0-6.35,11.75l8.39,28.12Z" transform="translate(-201.11 -418.96)"/><path class="cls-1" d="M284.77,604.13h0a2.3,2.3,0,0,0-2.25,2.35l0.12,5.57a2.3,2.3,0,0,0,2.35,2.25h0a2.3,2.3,0,0,0,2.25-2.35l-0.12-5.57A2.3,2.3,0,0,0,284.77,604.13Z" transform="translate(-201.11 -418.96)"/><path class="cls-1" d="M282.53,606.47l0-3.09,8.36-3L301,603.1l0,3.09C301.13,619.82,282.63,622.25,282.53,606.47Z" transform="translate(-201.11 -418.96)"/><path class="cls-1" d="M282.51,603.39l-0.58-29.52a9.43,9.43,0,0,1,9.39-9.51h0a9.48,9.48,0,0,1,9.51,9.39L301,603.1Z" transform="translate(-201.11 -418.96)"/><ellipse class="cls-7" cx="296.88" cy="478.42" rx="11.9" ry="6.1" transform="translate(-441.23 228.73) rotate(-75.67)"/><ellipse class="cls-7" cx="212.97" cy="478.42" rx="6.1" ry="11.9" transform="translate(-312.86 -351.39) rotate(-14.33)"/><path class="cls-8" d="M241.54,481.53c1.71,0,3.11-2.56,3.11-5.7s-1.4-5.7-3.11-5.7-3.11,2.56-3.11,5.7S239.83,481.53,241.54,481.53Z" transform="translate(-201.11 -418.96)"/><path class="cls-8" d="M268.34,481.53c1.71,0,3.11-2.56,3.11-5.7s-1.4-5.7-3.11-5.7-3.11,2.56-3.11,5.7S266.63,481.53,268.34,481.53Z" transform="translate(-201.11 -418.96)"/><path class="cls-9" d="M238.76,500.17c7.54,2.14,23.72,2.54,32.37,0H238.76Z" transform="translate(-201.11 -418.96)"/><path class="cls-5" d="M248.65,488c2.42,6.16,10.17,6,12.59,0A9,9,0,0,1,248.65,488Z" transform="translate(-201.11 -418.96)"/><path class="cls-5" d="M247.42,503.46c2.8,3.8,12.07,3.75,15,0A22,22,0,0,1,247.42,503.46Z" transform="translate(-201.11 -418.96)"/><path class="cls-6" d="M265.28,462.44c2.43-1.81,6.59-.69,8.72,1.58,1.07,1.13.17,1.24-.55,0.6a6.66,6.66,0,0,0-7.64-.87C264.53,464.38,263.93,463.45,265.28,462.44Z" transform="translate(-201.11 -418.96)"/><path class="cls-6" d="M245.23,462.44c-2.52-1.69-6.62-.35-8.63,2-1,1.19-.11,1.25.58,0.57a6.66,6.66,0,0,1,7.59-1.26C246.07,464.35,246.64,463.38,245.23,462.44Z" transform="translate(-201.11 -418.96)"/><path class="cls-6" d="M227.16,454.43a13.67,13.67,0,1,0-13.67-13.67A13.7,13.7,0,0,0,227.16,454.43Z" transform="translate(-201.11 -418.96)"/><path class="cls-6" d="M240.59,448.42a13.67,13.67,0,1,0-13.67-13.67A13.7,13.7,0,0,0,240.59,448.42Z" transform="translate(-201.11 -418.96)"/><path class="cls-6" d="M261.1,446.3a13.67,13.67,0,1,0-13.67-13.67A13.7,13.7,0,0,0,261.1,446.3Z" transform="translate(-201.11 -418.96)"/><path class="cls-6" d="M279.48,453a13.67,13.67,0,1,0-13.67-13.67A13.7,13.7,0,0,0,279.48,453Z" transform="translate(-201.11 -418.96)"/><path class="cls-6" d="M290.09,468.22a13.67,13.67,0,1,0-13.67-13.67A13.7,13.7,0,0,0,290.09,468.22Z" transform="translate(-201.11 -418.96)"/><path class="cls-6" d="M215.49,468.58a13.67,13.67,0,1,0-13.67-13.67A13.7,13.7,0,0,0,215.49,468.58Z" transform="translate(-201.11 -418.96)"/><path class="cls-6" d="M257.21,453.88a13.67,13.67,0,1,0-13.67-13.67A13.7,13.7,0,0,0,257.21,453.88Z" transform="translate(-201.11 -418.96)"/><path class="cls-6" d="M238.47,455.07A13.67,13.67,0,1,0,224.8,441.4,13.7,13.7,0,0,0,238.47,455.07Z" transform="translate(-201.11 -418.96)"/><path class="cls-10" d="M276.46,456.22a13.67,13.67,0,1,0-13.67-13.67A13.7,13.7,0,0,0,276.46,456.22Z" transform="translate(-201.11 -418.96)"/><path class="cls-6" d="M286.16,461.93a11.63,11.63,0,1,0-11.63-11.63A11.65,11.65,0,0,0,286.16,461.93Z" transform="translate(-201.11 -418.96)"/><path class="cls-6" d="M223.95,460.47a13.67,13.67,0,1,0-13.67-13.67A13.7,13.7,0,0,0,223.95,460.47Z" transform="translate(-201.11 -418.96)"/><path class="cls-6" d="M215.94,472.11a9.64,9.64,0,1,0-9.64-9.64A9.66,9.66,0,0,0,215.94,472.11Z" transform="translate(-201.11 -418.96)"/><path class="cls-6" d="M291.64,472.06a9.33,9.33,0,1,0-9.33-9.33A9.35,9.35,0,0,0,291.64,472.06Z" transform="translate(-201.11 -418.96)"/><path class="cls-6" d="M290,479.62a6,6,0,1,0-6-6A6,6,0,0,0,290,479.62Z" transform="translate(-201.11 -418.96)"/><path class="cls-6" d="M214.94,478.9a6,6,0,1,0-6-6A6,6,0,0,0,214.94,478.9Z" transform="translate(-201.11 -418.96)"/><circle class="cls-11" cx="87.49" cy="63.18" r="4.2"/><circle class="cls-11" cx="14.54" cy="61.64" r="4.2"/><path class="cls-12" d="M295.82,698.19a9.67,9.67,0,0,1,.65,1.56c2.43,7.86-5.8,7.47-10.89,6.25-5.33-1.28-7.87-4.46-10.8-5.3-3.85-1.11-5.68-2.85-6.11-5.77,4.08,3.17,10.26,5.78,16.81,7.93A14.52,14.52,0,0,1,295.82,698.19Z" transform="translate(-201.11 -418.96)"/><path class="cls-13" d="M293,694.88a0.6,0.6,0,1,0,.71-1,6.37,6.37,0,0,0-2.08-.88h0a0.6,0.6,0,0,0,.46-0.15,0.61,0.61,0,0,0,.16-0.15,0.6,0.6,0,0,0-.13-0.84,9.64,9.64,0,0,0-3-1.22l0.29,0a0.6,0.6,0,1,0,.11-1.19,6.41,6.41,0,0,0-2.49.23v1.73a16.44,16.44,0,0,1,2.45.55,5.74,5.74,0,0,0-1.41.58c-0.35,0-.7,0-1,0v2.44a6.89,6.89,0,0,1,.83-0.85,5.32,5.32,0,0,1,.55-0.42A9.28,9.28,0,0,1,293,694.88Zm-5.92-5.15a5.71,5.71,0,0,0-1,.41H286a10.05,10.05,0,0,0-5.48.85,0.6,0.6,0,1,0,.58,1,7.53,7.53,0,0,1,3.45-.75,11.74,11.74,0,0,0-1.85,2.52,0.6,0.6,0,0,0,.67,1,8.59,8.59,0,0,1,3.18-.92,13.2,13.2,0,0,0-1.76,2.49,0.6,0.6,0,0,0,1,.6,13.91,13.91,0,0,1,1.26-1.89v-2.44a12.41,12.41,0,0,0-2.45.39,7.15,7.15,0,0,1,1.11-1.2,5.27,5.27,0,0,1,.61-0.44l0.73,0.09v-1.73Z" transform="translate(-201.11 -418.96)"/><path class="cls-12" d="M227.24,698.19a9.61,9.61,0,0,0-.65,1.56c-2.43,7.86,5.8,7.47,10.89,6.25,5.33-1.28,7.87-4.46,10.79-5.3,3.85-1.11,5.68-2.85,6.11-5.77-4.08,3.17-10.26,5.78-16.81,7.93A14.52,14.52,0,0,0,227.24,698.19Z" transform="translate(-201.11 -418.96)"/><path class="cls-13" d="M236.13,689.73a5.71,5.71,0,0,1,1,.41h0.09a10.05,10.05,0,0,1,5.48.85,0.6,0.6,0,1,1-.58,1,7.53,7.53,0,0,0-3.45-.75,11.74,11.74,0,0,1,1.85,2.52,0.6,0.6,0,0,1-.67,1,8.59,8.59,0,0,0-3.18-.92,13.18,13.18,0,0,1,1.76,2.49,0.6,0.6,0,0,1-1,.6,13.81,13.81,0,0,0-1.26-1.89v-2.45a12.41,12.41,0,0,1,2.45.39,7.15,7.15,0,0,0-1.11-1.2,5.29,5.29,0,0,0-.61-0.44l-0.73.09v-1.73Zm-5.92,5.15a0.6,0.6,0,1,1-.71-1,6.37,6.37,0,0,1,2.08-.88h0a0.65,0.65,0,0,1-.49-1.14,9.64,9.64,0,0,1,3-1.22l-0.29,0a0.6,0.6,0,1,1-.11-1.19,6.41,6.41,0,0,1,2.49.23v1.73a16.44,16.44,0,0,0-2.45.55,5.74,5.74,0,0,1,1.41.58c0.35,0,.7,0,1,0v2.45a6.83,6.83,0,0,0-.83-0.85,5.3,5.3,0,0,0-.55-0.42A9.28,9.28,0,0,0,230.21,694.88Z" transform="translate(-201.11 -418.96)"/></svg>