<svg id="Objects" xmlns="http://www.w3.org/2000/svg" viewBox="0 0 103.71 104.32"><defs><style>.cls-1{fill:#ba885f;}.cls-1,.cls-2,.cls-3,.cls-5,.cls-6,.cls-7{fill-rule:evenodd;}.cls-2,.cls-7,.cls-8{fill:#6b503f;}.cls-3,.cls-4{fill:#dea97e;}.cls-5{fill:#425156;}.cls-6{fill:#a17049;}.cls-7{stroke:#6b503f;stroke-miterlimit:22.93;stroke-width:0.22px;}</style></defs><title>Avatar_head</title><path class="cls-1" d="M243.48,515.9h0c0,9.85,22.93,9.85,22.93,0h0C266.41,506,243.48,506,243.48,515.9Z" transform="translate(-201.11 -418.96)"/><path class="cls-2" d="M226.87,508.9a13.67,13.67,0,1,0-13.67-13.67A13.7,13.7,0,0,0,226.87,508.9Z" transform="translate(-201.11 -418.96)"/><path class="cls-2" d="M280.38,509.35a13.67,13.67,0,1,0-13.67-13.67A13.7,13.7,0,0,0,280.38,509.35Z" transform="translate(-201.11 -418.96)"/><path class="cls-2" d="M216.74,498.54a13.67,13.67,0,1,0-13.67-13.67A13.7,13.7,0,0,0,216.74,498.54Z" transform="translate(-201.11 -418.96)"/><path class="cls-2" d="M289.17,497.58a13.67,13.67,0,1,0-13.67-13.67A13.7,13.7,0,0,0,289.17,497.58Z" transform="translate(-201.11 -418.96)"/><path class="cls-2" d="M214.78,485.48a13.67,13.67,0,1,0-13.67-13.67A13.7,13.7,0,0,0,214.78,485.48Z" transform="translate(-201.11 -418.96)"/><path class="cls-2" d="M291.15,483.36a13.67,13.67,0,1,0-13.67-13.67A13.7,13.7,0,0,0,291.15,483.36Z" transform="translate(-201.11 -418.96)"/><path class="cls-3" d="M254.94,425.6c64.6,0,49,93.76,0,93.76S190.34,425.6,254.94,425.6Z" transform="translate(-201.11 -418.96)"/><ellipse class="cls-4" cx="296.88" cy="478.42" rx="11.9" ry="6.1" transform="translate(-441.23 228.73) rotate(-75.67)"/><ellipse class="cls-4" cx="212.97" cy="478.42" rx="6.1" ry="11.9" transform="translate(-312.86 -351.39) rotate(-14.33)"/><path class="cls-5" d="M241.54,481.53c1.71,0,3.11-2.56,3.11-5.7s-1.4-5.7-3.11-5.7-3.11,2.56-3.11,5.7S239.83,481.53,241.54,481.53Z" transform="translate(-201.11 -418.96)"/><path class="cls-5" d="M268.34,481.53c1.71,0,3.11-2.56,3.11-5.7s-1.4-5.7-3.11-5.7-3.11,2.56-3.11,5.7S266.63,481.53,268.34,481.53Z" transform="translate(-201.11 -418.96)"/><path class="cls-6" d="M238.76,500.17c7.54,2.14,23.72,2.54,32.37,0H238.76Z" transform="translate(-201.11 -418.96)"/><path class="cls-1" d="M248.65,488c2.42,6.16,10.17,6,12.59,0A9,9,0,0,1,248.65,488Z" transform="translate(-201.11 -418.96)"/><path class="cls-1" d="M247.42,503.46c2.8,3.8,12.07,3.75,15,0A22,22,0,0,1,247.42,503.46Z" transform="translate(-201.11 -418.96)"/><path class="cls-2" d="M265.28,462.44c2.43-1.81,6.59-.69,8.72,1.58,1.07,1.13.17,1.24-.55,0.6a6.66,6.66,0,0,0-7.64-.87C264.53,464.38,263.93,463.45,265.28,462.44Z" transform="translate(-201.11 -418.96)"/><path class="cls-2" d="M245.23,462.44c-2.52-1.69-6.62-.35-8.63,2-1,1.19-.11,1.25.58,0.57a6.66,6.66,0,0,1,7.59-1.26C246.07,464.35,246.64,463.38,245.23,462.44Z" transform="translate(-201.11 -418.96)"/><path class="cls-2" d="M227.16,454.43a13.67,13.67,0,1,0-13.67-13.67A13.7,13.7,0,0,0,227.16,454.43Z" transform="translate(-201.11 -418.96)"/><path class="cls-2" d="M240.59,448.42a13.67,13.67,0,1,0-13.67-13.67A13.7,13.7,0,0,0,240.59,448.42Z" transform="translate(-201.11 -418.96)"/><path class="cls-2" d="M261.1,446.3a13.67,13.67,0,1,0-13.67-13.67A13.7,13.7,0,0,0,261.1,446.3Z" transform="translate(-201.11 -418.96)"/><path class="cls-2" d="M279.48,453a13.67,13.67,0,1,0-13.67-13.67A13.7,13.7,0,0,0,279.48,453Z" transform="translate(-201.11 -418.96)"/><path class="cls-2" d="M290.09,468.22a13.67,13.67,0,1,0-13.67-13.67A13.7,13.7,0,0,0,290.09,468.22Z" transform="translate(-201.11 -418.96)"/><path class="cls-2" d="M215.49,468.58a13.67,13.67,0,1,0-13.67-13.67A13.7,13.7,0,0,0,215.49,468.58Z" transform="translate(-201.11 -418.96)"/><path class="cls-2" d="M257.21,453.88a13.67,13.67,0,1,0-13.67-13.67A13.7,13.7,0,0,0,257.21,453.88Z" transform="translate(-201.11 -418.96)"/><path class="cls-2" d="M238.47,455.07A13.67,13.67,0,1,0,224.8,441.4,13.7,13.7,0,0,0,238.47,455.07Z" transform="translate(-201.11 -418.96)"/><path class="cls-7" d="M276.46,456.22a13.67,13.67,0,1,0-13.67-13.67A13.7,13.7,0,0,0,276.46,456.22Z" transform="translate(-201.11 -418.96)"/><path class="cls-2" d="M286.16,461.93a11.63,11.63,0,1,0-11.63-11.63A11.65,11.65,0,0,0,286.16,461.93Z" transform="translate(-201.11 -418.96)"/><path class="cls-2" d="M223.95,460.47a13.67,13.67,0,1,0-13.67-13.67A13.7,13.7,0,0,0,223.95,460.47Z" transform="translate(-201.11 -418.96)"/><path class="cls-2" d="M215.94,472.11a9.64,9.64,0,1,0-9.64-9.64A9.66,9.66,0,0,0,215.94,472.11Z" transform="translate(-201.11 -418.96)"/><path class="cls-2" d="M291.64,472.06a9.33,9.33,0,1,0-9.33-9.33A9.35,9.35,0,0,0,291.64,472.06Z" transform="translate(-201.11 -418.96)"/><path class="cls-2" d="M290,479.62a6,6,0,1,0-6-6A6,6,0,0,0,290,479.62Z" transform="translate(-201.11 -418.96)"/><path class="cls-2" d="M214.94,478.9a6,6,0,1,0-6-6A6,6,0,0,0,214.94,478.9Z" transform="translate(-201.11 -418.96)"/><circle class="cls-8" cx="87.49" cy="63.18" r="4.2"/><circle class="cls-8" cx="14.54" cy="61.64" r="4.2"/></svg>