<svg id="Objects" xmlns="http://www.w3.org/2000/svg" viewBox="0 0 88.51 92.08"><defs><style>.cls-1{fill:#ffcf30;}.cls-2{fill:#f07643;}.cls-3{fill:#a1c947;}.cls-4{fill:#869b52;}.cls-5{fill:#65743e;}.cls-6{fill:#fff;}</style></defs><title>house</title><path class="cls-1" d="M498.49,446.51a2.36,2.36,0,0,0-3.06,1.17,2.33,2.33,0,0,0,1.18,3.07,2.36,2.36,0,0,0,3.06-1.18A2.33,2.33,0,0,0,498.49,446.51Z" transform="translate(-441.52 -420.92)"/><path class="cls-1" d="M512,448c-2.61-.93-4.38,3-1.76,3.95S514.59,448.94,512,448Z" transform="translate(-441.52 -420.92)"/><path class="cls-1" d="M507.37,435.08a1.84,1.84,0,0,0-2.39-1l-0.91.51a1.79,1.79,0,0,0-.6,2.11,1.82,1.82,0,0,0,2.34,1l0.53-.21A1.86,1.86,0,0,0,507.37,435.08Z" transform="translate(-441.52 -420.92)"/><path class="cls-1" d="M491.94,433.67c-2.1-.75-3.53,2.42-1.42,3.18S494.05,434.43,491.94,433.67Z" transform="translate(-441.52 -420.92)"/><path class="cls-2" d="M504.71,443.66c-1.93-.69-3.24,2.22-1.3,2.92S506.65,444.35,504.71,443.66Z" transform="translate(-441.52 -420.92)"/><path class="cls-2" d="M499.55,430.31c-1.71-.61-2.87,2-1.15,2.59S501.27,430.93,499.55,430.31Z" transform="translate(-441.52 -420.92)"/><path class="cls-3" d="M498.94,438.59c-2-.73-3.4,2.33-1.37,3.06S501,439.31,498.94,438.59Z" transform="translate(-441.52 -420.92)"/><path class="cls-3" d="M515.36,440.12c-2.32-.83-3.89,2.67-1.56,3.5S517.68,441,515.36,440.12Z" transform="translate(-441.52 -420.92)"/><path class="cls-3" d="M522.59,443.9c-1.92-.87-3.5,2-1.57,2.89S524.53,444.77,522.59,443.9Z" transform="translate(-441.52 -420.92)"/><path class="cls-3" d="M493.51,440.31a1.48,1.48,0,0,0-2.51-.37l-0.44.54a1.14,1.14,0,0,0-.17,1.13,1.1,1.1,0,0,0,1,.68,0.57,0.57,0,0,0,.75,0h0.21A1.48,1.48,0,0,0,493.51,440.31Z" transform="translate(-441.52 -420.92)"/><path class="cls-3" d="M487.8,440.7a0.86,0.86,0,0,0-.6-1.34,1.42,1.42,0,1,0-.26,2.5A1.37,1.37,0,0,0,487.8,440.7Z" transform="translate(-441.52 -420.92)"/><path class="cls-3" d="M514,432.2c-1.48-.53-2.48,1.71-1,2.24S515.53,432.74,514,432.2Z" transform="translate(-441.52 -420.92)"/><path class="cls-1" d="M459.9,437.79a2.13,2.13,0,0,0-2.24,1.93,2.1,2.1,0,0,0,1.93,2.24,2.13,2.13,0,0,0,2.24-1.93A2.1,2.1,0,0,0,459.9,437.79Z" transform="translate(-441.52 -420.92)"/><path class="cls-1" d="M471.79,435c-2.5,0-2.8,3.88-.29,3.88S474.3,435,471.79,435Z" transform="translate(-441.52 -420.92)"/><path class="cls-1" d="M464,425.39a1.66,1.66,0,0,0-2.34-.15l-0.62.71a1.61,1.61,0,0,0,.13,2,1.64,1.64,0,0,0,2.3.14l0.39-.34A1.67,1.67,0,0,0,464,425.39Z" transform="translate(-441.52 -420.92)"/><path class="cls-1" d="M450.44,428.88c-2,0-2.26,3.13-.24,3.13S452.46,428.88,450.44,428.88Z" transform="translate(-441.52 -420.92)"/><path class="cls-2" d="M464.32,433.48c-1.85,0-2.07,2.87-.22,2.87S466.17,433.48,464.32,433.48Z" transform="translate(-441.52 -420.92)"/><path class="cls-2" d="M455.87,423.72c-1.64,0-1.84,2.55-.19,2.55S457.52,423.72,455.87,423.72Z" transform="translate(-441.52 -420.92)"/><path class="cls-3" d="M457.87,430.93c-1.94,0-2.18,3-.23,3S459.82,430.93,457.87,430.93Z" transform="translate(-441.52 -420.92)"/><path class="cls-3" d="M472.27,427.24c-2.22,0-2.49,3.45-.26,3.45S474.5,427.24,472.27,427.24Z" transform="translate(-441.52 -420.92)"/><path class="cls-3" d="M479.56,428.24c-1.9-.15-2.36,2.78-0.46,2.93S481.47,428.39,479.56,428.24Z" transform="translate(-441.52 -420.92)"/><path class="cls-3" d="M453.79,434a1.33,1.33,0,0,0-2.24.45l-0.21.59a1,1,0,0,0,.2,1,1,1,0,0,0,1,.29,0.52,0.52,0,0,0,.64-0.2l0.18-.06A1.33,1.33,0,0,0,453.79,434Z" transform="translate(-441.52 -420.92)"/><path class="cls-3" d="M449.06,436.11a0.78,0.78,0,0,0-.92-1,1.28,1.28,0,1,0,.54,2.2A1.23,1.23,0,0,0,449.06,436.11Z" transform="translate(-441.52 -420.92)"/><path class="cls-3" d="M468.75,420.92c-1.42,0-1.59,2.2-.17,2.2S470.18,420.92,468.75,420.92Z" transform="translate(-441.52 -420.92)"/><path class="cls-4" d="M453.2,496.78a7,7,0,0,0-3.35,1.63,7.14,7.14,0,0,0-2.1,3.09,7.25,7.25,0,0,0-.29,3.68c0,0.15.08,0.29,0.11,0.44a6.52,6.52,0,0,0-6,6,6.06,6.06,0,0,0,.07,1.42H454V496.68A7.5,7.5,0,0,0,453.2,496.78Z" transform="translate(-441.52 -420.92)"/><path class="cls-4" d="M529.61,510.13a4.11,4.11,0,0,0-1.42-1.62,4.78,4.78,0,0,0-1.12-.53,8.74,8.74,0,0,0-1.18-.21l-0.09-.14a5.63,5.63,0,0,0-1.38-4l-1.09-1a5.57,5.57,0,0,0-2.68-.93l-1.45.08a5.82,5.82,0,0,0-1.27.41,5.2,5.2,0,0,0-2.92-3.47V513h14.88a4,4,0,0,0,.14-0.76A4.14,4.14,0,0,0,529.61,510.13Z" transform="translate(-441.52 -420.92)"/><polygon class="cls-4" points="24.48 22.08 13.48 22.08 13.48 35.69 24.48 26.97 24.48 22.08"/><path class="cls-3" d="M515,464l-30.12-24L454,464.58V513h20v-5h3V486h16v22h3v5h19V464Zm-45.89,13.33a4.92,4.92,0,1,1,4.92-4.92A4.92,4.92,0,0,1,469.11,477.38Zm27.08-4.92a4.92,4.92,0,1,1,4.92,4.92A4.92,4.92,0,0,1,496.19,472.46Z" transform="translate(-441.52 -420.92)"/><polygon class="cls-5" points="73.48 43.13 81.89 49.82 85.39 45.41 43.37 11.99 24.48 26.97 13.48 35.69 1.8 44.95 5.3 49.36 12.48 43.66 43.36 19.18 73.48 43.13"/><rect class="cls-6" x="35.48" y="65.08" width="16" height="22"/><polygon class="cls-4" points="51.48 87.08 35.48 87.08 32.48 87.08 32.48 92.08 54.48 92.08 54.48 87.08 51.48 87.08"/><circle class="cls-6" cx="27.6" cy="51.54" r="4.92"/><circle class="cls-6" cx="59.6" cy="51.54" r="4.92"/></svg>