<svg id="Objects" xmlns="http://www.w3.org/2000/svg" viewBox="0 0 63.88 109.97"><defs><style>.cls-1{fill:#a1c947;}.cls-2{fill:#869b52;}.cls-3{fill:#434e29;}</style></defs><title>powerpig</title><path id="_Fritlægningskurve_" data-name="&lt;Fritlægningskurve&gt;" class="cls-1" d="M674.74,576.19S660.4,576,655.33,582s0.65,16.48.65,16.48,11.26,3.84,16.34-2.2S674.74,576.19,674.74,576.19Z" transform="translate(-622.29 -576.19)"/><path id="_Fritlægningskurve_2" data-name="&lt;Fritlægningskurve&gt;" class="cls-1" d="M633.2,587.15s10.48-.87,14.51,3.28,0.37,12.08.37,12.08-8,3.39-12.07-.76S633.2,587.15,633.2,587.15Z" transform="translate(-622.29 -576.19)"/><path class="cls-2" d="M650,624s2.83-16.54-6.76-26.36c0,0,6.73,2.3,8.34,8.45,0,0,4.08-16.39,12.8-18.43,0,0-14.39,13.34-8.5,36.34H650Z" transform="translate(-622.29 -576.19)"/><path class="cls-2" d="M684.51,614.87a1.13,1.13,0,0,1-.27.09c-6.83.42-11.33,2.58-14.1,4.56a28.65,28.65,0,1,1-31.95-.1,26.77,26.77,0,0,0-14-4.46,1.12,1.12,0,0,1-.27-0.09s-4.62,12.32,1.54,20.26a31.7,31.7,0,0,0,6.5,36.42v14.61l4-2.61,4,2.61v-8.94a31.71,31.71,0,0,0,28,.09v8.85l4-2.61,4,2.61V671.71a31.68,31.68,0,0,0,6.78-36.36C689.21,627.42,684.51,614.87,684.51,614.87Z" transform="translate(-622.29 -576.19)"/><path class="cls-1" d="M625.44,643.25a28.65,28.65,0,1,0,12.75-23.83A28.65,28.65,0,0,0,625.44,643.25Zm19.72-8a1.91,1.91,0,0,1-.16.76,1.63,1.63,0,0,0-1.68-1.14,2.18,2.18,0,0,0-1.88,1A1.92,1.92,0,1,1,645.15,635.2Zm8.93,30.08c-9.87,0-17.88-5.71-17.88-12.75s8-12.75,17.88-12.75S672,645.48,672,652.52,664,665.27,654.09,665.27Zm10.95-32a1.91,1.91,0,0,1,1.65,2.89A1.64,1.64,0,0,0,665,635a2.16,2.16,0,0,0-1.75.85,2,2,0,0,1-.11-0.61A1.92,1.92,0,0,1,665,633.28Z" transform="translate(-622.29 -576.19)"/><path class="cls-2" d="M672,652.52c0-7-8-12.75-17.89-12.75s-17.88,5.71-17.88,12.75,8,12.75,17.88,12.75S672,659.56,672,652.52Zm-25.56,3a3,3,0,1,1,3-3A3,3,0,0,1,646.42,655.5Zm15.34,0a3,3,0,1,1,3-3A3,3,0,0,1,661.76,655.5Z" transform="translate(-622.29 -576.19)"/><circle class="cls-3" cx="24.13" cy="76.33" r="2.98"/><circle class="cls-3" cx="39.47" cy="76.33" r="2.98"/><path class="cls-3" d="M641.31,635.2a1.91,1.91,0,0,0,.12.65,2.18,2.18,0,0,1,1.88-1A1.63,1.63,0,0,1,645,636,1.92,1.92,0,1,0,641.31,635.2Z" transform="translate(-622.29 -576.19)"/><path class="cls-3" d="M665,635a1.64,1.64,0,0,1,1.71,1.21,1.92,1.92,0,1,0-3.57-1,2,2,0,0,0,.11.61A2.16,2.16,0,0,1,665,635Z" transform="translate(-622.29 -576.19)"/></svg>