<svg id="objects" xmlns="http://www.w3.org/2000/svg" xmlns:xlink="http://www.w3.org/1999/xlink" viewBox="0 0 217.08 217.08"><defs><style>.cls-1{fill:url(#linear-gradient);}.cls-2{fill:url(#linear-gradient-2);}.cls-3{fill:#fff;}.cls-4{fill:#aa7764;}.cls-4,.cls-5,.cls-6,.cls-7,.cls-8,.cls-9{fill-rule:evenodd;}.cls-5{fill:#e0ba9b;}.cls-6{fill:#fcdabe;}.cls-7{fill:#425156;}.cls-8{fill:#bf9470;}.cls-9{fill:#fcc379;}</style><linearGradient id="linear-gradient" x1="-13.49" y1="-0.65" x2="278.13" y2="260.28" gradientUnits="userSpaceOnUse"><stop offset="0" stop-color="#d7d9dc"/><stop offset="0.26" stop-color="#fff"/><stop offset="0.53" stop-color="#767676"/><stop offset="0.7" stop-color="#e2e2e2"/><stop offset="1" stop-color="#737373"/></linearGradient><linearGradient id="linear-gradient-2" x1="272.55" y1="273.38" x2="56.57" y2="56.31" xlink:href="#linear-gradient"/></defs><title>Student_silver</title><circle class="cls-1" cx="108.54" cy="108.54" r="108.54"/><circle class="cls-2" cx="108.54" cy="108.54" r="98.67"/><circle class="cls-3" cx="638.2" cy="399.9" r="77.02" transform="translate(-362.3 697.09) rotate(-83.24)"/><path class="cls-4" d="M637.41,337.86c-60.33,1-101,118.1-3.39,121C744.58,462.16,697.73,336.9,637.41,337.86Z" transform="translate(-528.2 -289.47)"/><path class="cls-5" d="M651.53,451.22h0c0,11.63-27.87,11.63-27.87,0h0C623.66,439.59,651.53,439.59,651.53,451.22Z" transform="translate(-528.2 -289.47)"/><path class="cls-6" d="M637.59,344.55c-61,0-56.3,57.15-44.67,77.26,15.87,27.44,37.22,33.51,44.67,33.51s28.79-6.07,44.66-33.51C693.89,401.7,698.56,344.55,637.59,344.55Z" transform="translate(-528.2 -289.47)"/><path class="cls-6" d="M583.56,393.32c4-1,8.78,4.32,10.76,11.84s0.37,14.42-3.6,15.41-8.78-4.32-10.76-11.84S579.59,394.31,583.56,393.32Z" transform="translate(-528.2 -289.47)"/><path class="cls-6" d="M691.65,393.32c-4-1-8.78,4.32-10.76,11.84s-0.37,14.42,3.6,15.41,8.78-4.32,10.76-11.84S695.62,394.31,691.65,393.32Z" transform="translate(-528.2 -289.47)"/><path class="cls-7" d="M653.88,410.62c2.08,0,3.78-3,3.78-6.74s-1.7-6.74-3.78-6.74-3.78,3-3.78,6.74S651.8,410.62,653.88,410.62Z" transform="translate(-528.2 -289.47)"/><path class="cls-7" d="M621.3,410.62c2.08,0,3.78-3,3.78-6.74s-1.7-6.74-3.78-6.74-3.78,3-3.78,6.74S619.22,410.62,621.3,410.62Z" transform="translate(-528.2 -289.47)"/><path class="cls-5" d="M645.24,418.24c-2.94,7.28-12.36,7.15-15.3,0A11.11,11.11,0,0,0,645.24,418.24Z" transform="translate(-528.2 -289.47)"/><path class="cls-8" d="M653.77,429c-5.94,5.92-25.6,5.84-31.9,0A98.86,98.86,0,0,0,653.77,429Z" transform="translate(-528.2 -289.47)"/><path class="cls-5" d="M645.24,434.61c-2.76,3.64-11.89,3.59-14.82,0A22.25,22.25,0,0,0,645.24,434.61Z" transform="translate(-528.2 -289.47)"/><path class="cls-4" d="M596.34,403.26c-1.84,7.42-3.31,7.26-6.3.73s-7.87-9.9-6.7-16.27c11.14-60.8,100.6-58.31,106.87-1.47,0.71,6.44-2.12,11.21-5.12,17.74s-4.48,9.07-5.66.78C672.77,357.67,611.86,340.82,596.34,403.26Z" transform="translate(-528.2 -289.47)"/><path class="cls-4" d="M637.62,343c-37.38.3-46.58,21.09-52.12,37.5,3.27,4.36.66-1.11,5.12,3.62,26.17,9.76,67.88,9.73,92.88,0,4.84-5.14-.36-0.79,3-5.52C680,360.08,666.54,342.82,637.62,343Z" transform="translate(-528.2 -289.47)"/><path class="cls-9" d="M594,403.64c9-52.35,77.33-49,87.13-1.88C693.64,335.78,584.1,329.44,594,403.64Z" transform="translate(-528.2 -289.47)"/></svg>