<svg id="objects" xmlns="http://www.w3.org/2000/svg" xmlns:xlink="http://www.w3.org/1999/xlink" viewBox="0 0 217.08 217.08"><defs><style>.cls-1{fill:url(#linear-gradient);}.cls-2{fill:url(#linear-gradient-2);}.cls-3{fill:#fff;}.cls-4{fill:#aa7764;}.cls-4,.cls-5,.cls-7,.cls-8,.cls-9{fill-rule:evenodd;}.cls-5,.cls-6{fill:#fcdabe;}.cls-7{fill:#425156;}.cls-8{fill:#e0ba9b;}.cls-9{fill:#bf9470;}</style><linearGradient id="linear-gradient" x1="41.23" y1="478.52" x2="332.85" y2="739.45" gradientUnits="userSpaceOnUse"><stop offset="0" stop-color="#ca7339"/><stop offset="0.19" stop-color="#ddc28d"/><stop offset="0.27" stop-color="#d6a56e"/><stop offset="0.41" stop-color="#ca7339"/><stop offset="0.63" stop-color="#9b411f"/><stop offset="0.77" stop-color="#ca7339"/><stop offset="0.91" stop-color="#ddc28d"/><stop offset="0.95" stop-color="#d6a56e"/><stop offset="1" stop-color="#ca7339"/></linearGradient><linearGradient id="linear-gradient-2" x1="272.55" y1="273.38" x2="56.57" y2="56.3" xlink:href="#linear-gradient"/></defs><title>Student_bronze</title><path class="cls-1" d="M271.8,587.71A108.54,108.54,0,1,1,163.26,479.17,108.54,108.54,0,0,1,271.8,587.71Z" transform="translate(-54.72 -479.17)"/><circle class="cls-2" cx="108.54" cy="108.54" r="98.67"/><path class="cls-3" d="M241.21,598.67a77,77,0,1,1-67.42-85.55A77,77,0,0,1,241.21,598.67Z" transform="translate(-54.72 -479.17)"/><path class="cls-4" d="M164.7,528.35c-81.92,0-62.18,108.58,0,108.58S246.61,528.35,164.7,528.35Z" transform="translate(-54.72 -479.17)"/><path class="cls-5" d="M164.7,531.81c-81.8,0-62.09,118.73,0,118.73S246.49,531.81,164.7,531.81Z" transform="translate(-54.72 -479.17)"/><ellipse class="cls-6" cx="111.59" cy="598.69" rx="7.72" ry="15.07" transform="translate(-199.38 -432.95) rotate(-14.33)"/><ellipse class="cls-6" cx="217.84" cy="598.69" rx="15.07" ry="7.72" transform="translate(-470.85 182.45) rotate(-75.67)"/><path class="cls-7" d="M181.66,602.62c2.17,0,3.94-3.24,3.94-7.22s-1.77-7.22-3.94-7.22-3.94,3.24-3.94,7.22S179.49,602.62,181.66,602.62Z" transform="translate(-54.72 -479.17)"/><path class="cls-7" d="M147.72,602.62c2.17,0,3.94-3.24,3.94-7.22s-1.77-7.22-3.94-7.22-3.94,3.24-3.94,7.22S145.56,602.62,147.72,602.62Z" transform="translate(-54.72 -479.17)"/><path class="cls-8" d="M172.66,610.78c-3.06,7.8-12.88,7.66-15.94,0A11.35,11.35,0,0,0,172.66,610.78Z" transform="translate(-54.72 -479.17)"/><path class="cls-4" d="M119.49,599.6c0.9,8.69-1.21,6.23-4.33-.58s-5.39-13.61-4.85-20.33c5.26-64.95,101.83-65.74,108.73,0,0.7,6.71-1.73,13.52-4.85,20.33s-5.23,9.27-4.33.58c1.09-10.55-.53-25.72-6.11-34.65-9.87-15.81-22.76-6.63-40.22-6.63s-25.65-7.13-37.06,7.46C119.56,574.62,118.33,588.34,119.49,599.6Z" transform="translate(-54.72 -479.17)"/><path class="cls-4" d="M110.41,577.54c-6.5-68.34,114.92-66.7,108.57,0C204.91,536.77,124.47,536.77,110.41,577.54Z" transform="translate(-54.72 -479.17)"/><path class="cls-9" d="M185.19,622.34c-7.07,12.43-32.4,12.77-41,0C156.3,627.12,173.72,626.79,185.19,622.34Z" transform="translate(-54.72 -479.17)"/><path class="cls-4" d="M189.65,584.1c20.53-31.89,6.71-40.64-16.32-50.08C202.88,530.08,238,559.08,189.65,584.1Z" transform="translate(-54.72 -479.17)"/><path class="cls-4" d="M164.57,582.09c31.5-24.46,21.9-35,4.58-48C201.09,536.4,224.77,569.29,164.57,582.09Z" transform="translate(-54.72 -479.17)"/><path class="cls-4" d="M142.1,574.94c27.4-16.25,32.12-27.86,17.27-46.05C193,539.08,204.94,573.78,142.1,574.94Z" transform="translate(-54.72 -479.17)"/><path class="cls-4" d="M118.45,572.33c14.51-16.25,22.28-23.29,23.22-40C177.05,541.27,201.4,558,118.45,572.33Z" transform="translate(-54.72 -479.17)"/></svg>