<svg id="objects" xmlns="http://www.w3.org/2000/svg" xmlns:xlink="http://www.w3.org/1999/xlink" viewBox="0 0 217.08 217.08"><defs><style>.cls-1{fill:url(#linear-gradient);}.cls-2{fill:url(#linear-gradient-2);}.cls-3{fill:#fff;}.cls-4{fill:#ba885f;}.cls-10,.cls-4,.cls-5,.cls-6,.cls-8,.cls-9{fill-rule:evenodd;}.cls-10,.cls-11,.cls-5{fill:#6b503f;}.cls-6,.cls-7{fill:#dea97e;}.cls-8{fill:#425156;}.cls-9{fill:#a17049;}.cls-10{stroke:#6b503f;stroke-miterlimit:22.93;stroke-width:0.22px;}</style><linearGradient id="linear-gradient" x1="-13.5" y1="-0.65" x2="278.13" y2="260.28" gradientUnits="userSpaceOnUse"><stop offset="0" stop-color="#efb924"/><stop offset="0.19" stop-color="#f8f889"/><stop offset="0.26" stop-color="#f5e56a"/><stop offset="0.41" stop-color="#efb924"/><stop offset="0.63" stop-color="#ba760c"/><stop offset="0.77" stop-color="#efb924"/><stop offset="0.91" stop-color="#f8f889"/><stop offset="0.94" stop-color="#f5e56a"/><stop offset="1" stop-color="#efb924"/></linearGradient><linearGradient id="linear-gradient-2" x1="272.55" y1="273.38" x2="56.57" y2="56.31" xlink:href="#linear-gradient"/></defs><title>Student_guld</title><circle class="cls-1" cx="108.54" cy="108.54" r="108.54"/><circle class="cls-2" cx="108.54" cy="108.54" r="98.67"/><circle class="cls-3" cx="163.72" cy="202.77" r="77.02" transform="translate(-110.65 249.13) rotate(-83.24)"/><path class="cls-4" d="M152.88,259h0c0,12.28,28.59,12.28,28.59,0h0C181.48,246.77,152.88,246.77,152.88,259Z" transform="translate(-53.72 -92.33)"/><path class="cls-5" d="M132.17,250.32a17,17,0,1,0-17-17A17.08,17.08,0,0,0,132.17,250.32Z" transform="translate(-53.72 -92.33)"/><path class="cls-5" d="M198.9,250.88a17,17,0,1,0-17-17A17.08,17.08,0,0,0,198.9,250.88Z" transform="translate(-53.72 -92.33)"/><path class="cls-5" d="M119.55,237.4a17,17,0,1,0-17-17A17.08,17.08,0,0,0,119.55,237.4Z" transform="translate(-53.72 -92.33)"/><path class="cls-5" d="M209.86,236.2a17,17,0,1,0-17-17A17.08,17.08,0,0,0,209.86,236.2Z" transform="translate(-53.72 -92.33)"/><path class="cls-5" d="M117.1,221.11a17,17,0,1,0-17-17A17.08,17.08,0,0,0,117.1,221.11Z" transform="translate(-53.72 -92.33)"/><path class="cls-5" d="M212.34,218.47a17,17,0,1,0-17-17A17.08,17.08,0,0,0,212.34,218.47Z" transform="translate(-53.72 -92.33)"/><path class="cls-6" d="M167.18,146.45c80.56,0,61.15,116.92,0,116.92S86.62,146.45,167.18,146.45Z" transform="translate(-53.72 -92.33)"/><ellipse class="cls-7" cx="219.47" cy="212.31" rx="14.84" ry="7.6" transform="translate(-94.26 280.1) rotate(-75.67)"/><ellipse class="cls-7" cx="114.84" cy="212.31" rx="7.6" ry="14.84" transform="translate(-102.68 -57.32) rotate(-14.33)"/><path class="cls-8" d="M150.47,216.18c2.14,0,3.88-3.19,3.88-7.11s-1.74-7.11-3.88-7.11-3.88,3.19-3.88,7.11S148.33,216.18,150.47,216.18Z" transform="translate(-53.72 -92.33)"/><path class="cls-8" d="M183.89,216.18c2.14,0,3.88-3.19,3.88-7.11S186,202,183.89,202s-3.88,3.19-3.88,7.11S181.76,216.18,183.89,216.18Z" transform="translate(-53.72 -92.33)"/><path class="cls-9" d="M147,239.44c9.4,2.67,29.58,3.17,40.37,0H147Z" transform="translate(-53.72 -92.33)"/><path class="cls-4" d="M159.33,224.23c3,7.68,12.68,7.54,15.7,0A11.17,11.17,0,0,1,159.33,224.23Z" transform="translate(-53.72 -92.33)"/><path class="cls-4" d="M157.8,243.53c3.49,4.74,15,4.67,18.75,0A27.41,27.41,0,0,1,157.8,243.53Z" transform="translate(-53.72 -92.33)"/><path class="cls-5" d="M180.07,192.39c3-2.26,8.22-.86,10.88,2,1.33,1.41.21,1.55-.69,0.75a8.3,8.3,0,0,0-9.53-1.09C179.14,194.81,178.38,193.64,180.07,192.39Z" transform="translate(-53.72 -92.33)"/><path class="cls-5" d="M155.07,192.39c-3.14-2.1-8.26-.44-10.77,2.51-1.26,1.48-.13,1.56.72,0.72a8.3,8.3,0,0,1,9.46-1.57C156.12,194.76,156.82,193.56,155.07,192.39Z" transform="translate(-53.72 -92.33)"/><path class="cls-5" d="M132.53,182.4a17,17,0,1,0-17-17A17.08,17.08,0,0,0,132.53,182.4Z" transform="translate(-53.72 -92.33)"/><path class="cls-5" d="M149.28,174.9a17,17,0,1,0-17-17A17.08,17.08,0,0,0,149.28,174.9Z" transform="translate(-53.72 -92.33)"/><path class="cls-5" d="M174.86,172.25a17,17,0,1,0-17-17A17.08,17.08,0,0,0,174.86,172.25Z" transform="translate(-53.72 -92.33)"/><path class="cls-5" d="M197.78,180.63a17,17,0,1,0-17-17A17.08,17.08,0,0,0,197.78,180.63Z" transform="translate(-53.72 -92.33)"/><path class="cls-5" d="M211,199.59a17,17,0,1,0-17-17A17.08,17.08,0,0,0,211,199.59Z" transform="translate(-53.72 -92.33)"/><path class="cls-5" d="M118,200a17,17,0,1,0-17-17A17.08,17.08,0,0,0,118,200Z" transform="translate(-53.72 -92.33)"/><path class="cls-5" d="M170,181.71a17,17,0,1,0-17-17A17.08,17.08,0,0,0,170,181.71Z" transform="translate(-53.72 -92.33)"/><path class="cls-5" d="M146.64,183.19a17,17,0,1,0-17-17A17.08,17.08,0,0,0,146.64,183.19Z" transform="translate(-53.72 -92.33)"/><path class="cls-10" d="M194,184.63a17,17,0,1,0-17-17A17.08,17.08,0,0,0,194,184.63Z" transform="translate(-53.72 -92.33)"/><path class="cls-5" d="M206.11,191.74a14.5,14.5,0,1,0-14.5-14.5A14.53,14.53,0,0,0,206.11,191.74Z" transform="translate(-53.72 -92.33)"/><path class="cls-5" d="M128.53,189.92a17,17,0,1,0-17-17A17.08,17.08,0,0,0,128.53,189.92Z" transform="translate(-53.72 -92.33)"/><path class="cls-5" d="M118.54,204.45a12,12,0,1,0-12-12A12,12,0,0,0,118.54,204.45Z" transform="translate(-53.72 -92.33)"/><path class="cls-5" d="M212.94,204.38a11.64,11.64,0,1,0-11.64-11.64A11.66,11.66,0,0,0,212.94,204.38Z" transform="translate(-53.72 -92.33)"/><path class="cls-5" d="M210.92,213.8a7.45,7.45,0,1,0-7.45-7.45A7.46,7.46,0,0,0,210.92,213.8Z" transform="translate(-53.72 -92.33)"/><path class="cls-5" d="M117.29,212.91a7.45,7.45,0,1,0-7.45-7.45A7.46,7.46,0,0,0,117.29,212.91Z" transform="translate(-53.72 -92.33)"/><circle class="cls-11" cx="155.43" cy="124.62" r="5.24"/><circle class="cls-11" cx="64.46" cy="122.69" r="5.24"/></svg>